Coordinates
version=1
nRows=8
nColumns=40
inDegrees=yes

Units are S.I. units (second, meters, Newtons, ...)
Angles are in degrees.

endheader
time	pelvis_tilt	pelvis_list	pelvis_rotation	pelvis_tx	pelvis_ty	pelvis_tz	hip_flexion_r	hip_adduction_r	hip_rotation_r	knee_angle_r	knee_angle_r_beta	ankle_angle_r	subtalar_angle_r	mtp_angle_r	hip_flexion_l	hip_adduction_l	hip_rotation_l	knee_angle_l	knee_angle_l_beta	ankle_angle_l	subtalar_angle_l	mtp_angle_l	lumbar_extension	lumbar_bending	lumbar_rotation	arm_flex_r	arm_add_r	arm_rot_r	elbow_flex_r	pro_sup_r	wrist_flex_r	wrist_dev_r	arm_flex_l	arm_add_l	arm_rot_l	elbow_flex_l	pro_sup_l	wrist_flex_l	wrist_dev_l
      3.65500000	     -7.00883600	     -3.80796009	      1.51857201	      0.97431778	      0.92990625	      0.42092976	     38.43058879	     -8.38842237	     -9.22402646	     64.22382456	     64.22382456	      3.16274501	    -14.13574140	      1.37834238	     16.20155850	     -5.31447705	    -10.72260434	     19.42335818	     19.42335818	     14.39797406	      1.46192393	     -4.68376750	    -11.48114597	      1.89871513	      2.01119404	     -0.95391349	    -14.93548649	     -2.62789499	     55.35366304	     46.16617422	      0.00000000	      0.00000000	     22.14480881	    -15.97499139	      1.24418522	     47.07768457	     46.98032913	      0.00000000	      0.00000000
      3.66657143	     -7.09162935	     -3.92981280	      1.50343682	      0.97334967	      0.92960606	      0.42089326	     39.06409369	     -8.17619801	     -9.28797981	     61.83842079	     61.83842079	      2.69201931	    -13.62707477	      1.55933206	     15.62884387	     -5.42254161	    -10.73135470	     19.12953565	     19.12953565	     14.68744616	      1.57410788	     -5.02810422	    -11.51132543	      2.13773929	      2.30560647	     -2.73876682	    -15.45205543	     -2.72713073	     52.32838363	     46.25271084	      0.00000000	      0.00000000	     23.59093139	    -16.00197231	      1.09741615	     48.96022733	     47.02544555	      0.00000000	      0.00000000
      3.67814286	     -7.17789182	     -3.95606887	      1.44486771	      0.97270693	      0.92934386	      0.42104983	     39.50538607	     -8.00357596	     -9.34197169	     59.06187053	     59.06187053	      2.06807938	    -13.16925086	      1.32087108	     14.93595343	     -5.44101832	    -10.85428673	     18.65248141	     18.65248141	     14.74075121	      1.74369720	     -5.86749426	    -11.44904043	      2.21349544	      1.71522181	     -2.68616882	    -15.12501570	     -3.78767869	     46.03669300	     46.47593809	      0.00000000	      0.00000000	     23.97770455	    -16.82999210	      1.03108042	     51.85736735	     47.06220457	      0.00000000	      0.00000000
      3.68971429	     -7.15906730	     -3.74439908	      1.25474425	      0.97250650	      0.92925844	      0.42129970	     39.69176807	     -7.96396959	     -9.23568315	     55.99507083	     55.99507083	      1.48618517	    -12.60100770	      1.12824973	     13.92768277	     -5.16089195	    -10.97188796	     17.90585065	     17.90585065	     14.79697455	      1.66451694	     -6.31856793	    -11.53622466	      2.07144143	      1.64097357	     -3.56929880	    -15.19338308	     -4.45209719	     41.83581080	     46.59836572	      0.00000000	      0.00000000	     24.53864461	    -17.21544838	      0.53552545	     54.74882270	     47.14630755	      0.00000000	      0.00000000
      3.70128571	     -6.97089351	     -3.21554326	      0.86354900	      0.97295343	      0.92951282	      0.42177284	     39.58385386	     -8.08157333	     -8.89263952	     52.70262166	     52.70262166	      1.13122560	    -11.80746213	      1.32611055	     12.46246776	     -4.54471071	    -11.40440044	     16.82292289	     16.82292289	     14.94204692	      1.82130338	     -6.28000126	    -11.79620746	      1.59121794	      2.19745008	     -5.37498418	    -15.53907930	     -4.58937851	     39.56269021	     46.66131519	      0.00000000	      0.00000000	     25.57917511	    -17.14376845	      0.21976068	     56.77920359	     47.20929014	      0.00000000	      0.00000000
      3.71285714	     -6.60796766	     -2.47191795	      0.26012479	      0.97418082	      0.93017803	      0.42254620	     39.11032196	     -8.26551196	     -8.43626700	     49.11051325	     49.11051325	      0.89291313	    -10.79686734	      1.49045925	     10.47378058	     -3.64552059	    -12.02993973	     15.23868337	     15.23868337	     14.96790456	      2.00059196	     -5.99720338	    -12.16186584	      0.87821160	      2.78489473	     -7.09072888	    -15.79143556	     -4.75678139	     37.39948017	     46.73068124	      0.00000000	      0.00000000	     26.36425826	    -17.14435347	     -0.05781306	     58.90236364	     47.26822583	      0.00000000	      0.00000000
      3.72442857	     -6.15339277	     -1.29312963	     -0.57051834	      0.97612468	      0.93097837	      0.42351609	     38.40235062	     -8.74394188	     -7.77115165	     45.20434884	     45.20434884	      0.11300010	     -9.78210493	     -0.53149838	      7.99964454	     -2.04166436	    -12.14636235	     12.91240673	     12.91240673	     14.30134495	      0.97357994	     -6.07334427	    -12.54388331	     -0.39507844	      2.38175912	     -6.67651375	    -15.26264368	     -6.79477533	     31.72980166	     46.94891914	      0.00000000	      0.00000000	     25.35171867	    -18.07711015	     -1.52477572	     63.80849187	     47.44854656	      0.00000000	      0.00000000
      3.73600000	     -5.55932388	     -0.16685298	     -1.58848382	      0.97863246	      0.93189034	      0.42499167	     37.43263005	     -9.04710532	     -7.16834743	     41.20124556	     41.20124556	      0.24263775	     -8.25406983	     -0.24007658	      5.42184962	     -0.61099797	    -13.09699335	     10.78889303	     10.78889303	     14.24821099	      1.43989864	     -5.23020980	    -12.96440736	     -1.54879455	      3.37653802	     -8.60137025	    -15.48175228	     -6.83378544	     30.48977691	     46.97817436	      0.00000000	      0.00000000	     26.02504440	    -17.98273998	     -1.77777011	     65.72337514	     47.50298414	      0.00000000	      0.00000000
